<svg width="250" height="79" viewBox="0 0 289 79" fill="none" xmlns="http://www.w3.org/2000/svg">
<path d="M0 26.5C0 11.8645 11.8645 0 26.5 0H262.5C277.136 0 289 11.8645 289 26.5V26.5C289 41.1355 277.136 53 262.5 53H26.5C11.8645 53 0 41.1355 0 26.5V26.5Z" fill="#01A29D"/>
<path d="M1.53928 27C5.07676 27 32.9837 27 32.9837 27L20.8111 41C20.8111 41 14.903 84.4895 7.82805 77.7883C0.753065 71.087 -1.9982 27 1.53928 27Z" fill="#01A29D"/>
<path d="M90.3386 13.8182H95.8102V32.0739C95.8102 33.7614 95.4309 35.2273 94.6724 36.4716C93.9224 37.7159 92.8784 38.6747 91.5403 39.348C90.2022 40.0213 88.6468 40.358 86.8741 40.358C85.2974 40.358 83.8656 40.081 82.5787 39.527C81.3002 38.9645 80.286 38.1122 79.536 36.9702C78.786 35.8196 78.4153 34.375 78.4238 32.6364H83.9338C83.9508 33.3267 84.0914 33.919 84.3556 34.4134C84.6284 34.8991 84.9991 35.2741 85.4679 35.5384C85.9451 35.794 86.5076 35.9219 87.1554 35.9219C87.8372 35.9219 88.4125 35.777 88.8812 35.4872C89.3585 35.1889 89.7207 34.7543 89.9679 34.1832C90.215 33.6122 90.3386 32.9091 90.3386 32.0739V13.8182ZM105.884 40.3707C104.631 40.3707 103.515 40.1534 102.535 39.7188C101.555 39.2756 100.779 38.6236 100.208 37.7628C99.6454 36.8935 99.3642 35.8111 99.3642 34.5156C99.3642 33.4247 99.5645 32.5085 99.965 31.767C100.366 31.0256 100.911 30.429 101.601 29.9773C102.292 29.5256 103.076 29.1847 103.954 28.9545C104.84 28.7244 105.769 28.5625 106.741 28.4688C107.883 28.3494 108.803 28.2386 109.502 28.1364C110.201 28.0256 110.708 27.8636 111.023 27.6506C111.339 27.4375 111.496 27.1222 111.496 26.7045V26.6278C111.496 25.8182 111.241 25.1918 110.729 24.7486C110.226 24.3054 109.51 24.0838 108.581 24.0838C107.601 24.0838 106.822 24.3011 106.242 24.7358C105.662 25.1619 105.279 25.6989 105.091 26.3466L100.055 25.9375C100.31 24.7443 100.813 23.7131 101.563 22.8438C102.313 21.9659 103.28 21.2926 104.465 20.8239C105.658 20.3466 107.039 20.108 108.607 20.108C109.698 20.108 110.742 20.2358 111.739 20.4915C112.745 20.7472 113.635 21.1435 114.411 21.6804C115.195 22.2173 115.813 22.9077 116.265 23.7514C116.716 24.5866 116.942 25.5881 116.942 26.7557V40H111.778V37.277H111.624C111.309 37.8906 110.887 38.4318 110.358 38.9006C109.83 39.3608 109.195 39.723 108.454 39.9872C107.712 40.2429 106.856 40.3707 105.884 40.3707ZM107.444 36.6122C108.245 36.6122 108.952 36.4545 109.566 36.1392C110.18 35.8153 110.661 35.3807 111.01 34.8352C111.36 34.2898 111.535 33.6719 111.535 32.9815V30.8977C111.364 31.0085 111.13 31.1108 110.831 31.2045C110.542 31.2898 110.214 31.3707 109.847 31.4474C109.481 31.5156 109.114 31.5795 108.748 31.6392C108.381 31.6903 108.049 31.7372 107.751 31.7798C107.111 31.8736 106.553 32.0227 106.076 32.2273C105.599 32.4318 105.228 32.7088 104.964 33.0582C104.699 33.3991 104.567 33.8253 104.567 34.3366C104.567 35.0781 104.836 35.6449 105.373 36.0369C105.918 36.4205 106.608 36.6122 107.444 36.6122ZM126.102 34.3494L126.115 27.8168H126.907L133.197 20.3636H139.449L130.998 30.233H129.707L126.102 34.3494ZM121.167 40V13.8182H126.613V40H121.167ZM133.44 40L127.662 31.4474L131.292 27.5994L139.819 40H133.44ZM147.72 40.3707C146.467 40.3707 145.351 40.1534 144.371 39.7188C143.39 39.2756 142.615 38.6236 142.044 37.7628C141.481 36.8935 141.2 35.8111 141.2 34.5156C141.2 33.4247 141.4 32.5085 141.801 31.767C142.202 31.0256 142.747 30.429 143.437 29.9773C144.128 29.5256 144.912 29.1847 145.79 28.9545C146.676 28.7244 147.605 28.5625 148.577 28.4688C149.719 28.3494 150.639 28.2386 151.338 28.1364C152.037 28.0256 152.544 27.8636 152.859 27.6506C153.175 27.4375 153.332 27.1222 153.332 26.7045V26.6278C153.332 25.8182 153.077 25.1918 152.565 24.7486C152.062 24.3054 151.346 24.0838 150.417 24.0838C149.437 24.0838 148.657 24.3011 148.078 24.7358C147.498 25.1619 147.115 25.6989 146.927 26.3466L141.89 25.9375C142.146 24.7443 142.649 23.7131 143.399 22.8438C144.149 21.9659 145.116 21.2926 146.301 20.8239C147.494 20.3466 148.875 20.108 150.443 20.108C151.534 20.108 152.578 20.2358 153.575 20.4915C154.581 20.7472 155.471 21.1435 156.247 21.6804C157.031 22.2173 157.649 22.9077 158.101 23.7514C158.552 24.5866 158.778 25.5881 158.778 26.7557V40H153.613V37.277H153.46C153.145 37.8906 152.723 38.4318 152.194 38.9006C151.666 39.3608 151.031 39.723 150.29 39.9872C149.548 40.2429 148.692 40.3707 147.72 40.3707ZM149.28 36.6122C150.081 36.6122 150.788 36.4545 151.402 36.1392C152.015 35.8153 152.497 35.3807 152.846 34.8352C153.196 34.2898 153.371 33.6719 153.371 32.9815V30.8977C153.2 31.0085 152.966 31.1108 152.667 31.2045C152.378 31.2898 152.05 31.3707 151.683 31.4474C151.317 31.5156 150.95 31.5795 150.584 31.6392C150.217 31.6903 149.885 31.7372 149.586 31.7798C148.947 31.8736 148.389 32.0227 147.912 32.2273C147.434 32.4318 147.064 32.7088 146.8 33.0582C146.535 33.3991 146.403 33.8253 146.403 34.3366C146.403 35.0781 146.672 35.6449 147.209 36.0369C147.754 36.4205 148.444 36.6122 149.28 36.6122ZM163.003 40V20.3636H168.283V23.7898H168.488C168.846 22.571 169.447 21.6506 170.29 21.0284C171.134 20.3977 172.106 20.0824 173.205 20.0824C173.478 20.0824 173.772 20.0994 174.087 20.1335C174.403 20.1676 174.68 20.2145 174.918 20.2741V25.1065C174.662 25.0298 174.309 24.9616 173.857 24.902C173.405 24.8423 172.992 24.8125 172.617 24.8125C171.816 24.8125 171.1 24.9872 170.469 25.3366C169.847 25.6776 169.353 26.1548 168.986 26.7685C168.628 27.3821 168.449 28.0895 168.449 28.8906V40H163.003ZM189.163 20.3636V24.4545H177.338V20.3636H189.163ZM180.022 15.6591H185.468V33.9659C185.468 34.4687 185.545 34.8608 185.698 35.142C185.852 35.4148 186.065 35.6065 186.338 35.7173C186.619 35.8281 186.943 35.8835 187.309 35.8835C187.565 35.8835 187.82 35.8622 188.076 35.8196C188.332 35.7685 188.528 35.7301 188.664 35.7045L189.521 39.7571C189.248 39.8423 188.865 39.9403 188.37 40.0511C187.876 40.1705 187.275 40.2429 186.568 40.2685C185.255 40.3196 184.105 40.1449 183.116 39.7443C182.136 39.3437 181.373 38.7216 180.828 37.8778C180.282 37.0341 180.014 35.9687 180.022 34.6818V15.6591ZM198.31 40.3707C197.057 40.3707 195.941 40.1534 194.96 39.7188C193.98 39.2756 193.205 38.6236 192.634 37.7628C192.071 36.8935 191.79 35.8111 191.79 34.5156C191.79 33.4247 191.99 32.5085 192.391 31.767C192.791 31.0256 193.337 30.429 194.027 29.9773C194.718 29.5256 195.502 29.1847 196.379 28.9545C197.266 28.7244 198.195 28.5625 199.166 28.4688C200.308 28.3494 201.229 28.2386 201.928 28.1364C202.627 28.0256 203.134 27.8636 203.449 27.6506C203.764 27.4375 203.922 27.1222 203.922 26.7045V26.6278C203.922 25.8182 203.666 25.1918 203.155 24.7486C202.652 24.3054 201.936 24.0838 201.007 24.0838C200.027 24.0838 199.247 24.3011 198.668 24.7358C198.088 25.1619 197.705 25.6989 197.517 26.3466L192.48 25.9375C192.736 24.7443 193.239 23.7131 193.989 22.8438C194.739 21.9659 195.706 21.2926 196.891 20.8239C198.084 20.3466 199.465 20.108 201.033 20.108C202.124 20.108 203.168 20.2358 204.165 20.4915C205.171 20.7472 206.061 21.1435 206.837 21.6804C207.621 22.2173 208.239 22.9077 208.691 23.7514C209.142 24.5866 209.368 25.5881 209.368 26.7557V40H204.203V37.277H204.05C203.735 37.8906 203.313 38.4318 202.784 38.9006C202.256 39.3608 201.621 39.723 200.879 39.9872C200.138 40.2429 199.281 40.3707 198.31 40.3707ZM199.869 36.6122C200.671 36.6122 201.378 36.4545 201.992 36.1392C202.605 35.8153 203.087 35.3807 203.436 34.8352C203.786 34.2898 203.96 33.6719 203.96 32.9815V30.8977C203.79 31.0085 203.556 31.1108 203.257 31.2045C202.968 31.2898 202.639 31.3707 202.273 31.4474C201.906 31.5156 201.54 31.5795 201.173 31.6392C200.807 31.6903 200.475 31.7372 200.176 31.7798C199.537 31.8736 198.979 32.0227 198.502 32.2273C198.024 32.4318 197.654 32.7088 197.389 33.0582C197.125 33.3991 196.993 33.8253 196.993 34.3366C196.993 35.0781 197.262 35.6449 197.798 36.0369C198.344 36.4205 199.034 36.6122 199.869 36.6122Z" fill="white"/>
</svg>
