<svg width="250" height="79" viewBox="0 0 289 79" fill="none" xmlns="http://www.w3.org/2000/svg">
<path d="M0 26.5C0 11.8645 11.8645 0 26.5 0H262.5C277.136 0 289 11.8645 289 26.5V26.5C289 41.1355 277.136 53 262.5 53H26.5C11.8645 53 0 41.1355 0 26.5V26.5Z" fill="#01A29D"/>
<path d="M1.53928 27C5.07676 27 32.9837 27 32.9837 27L20.8111 41C20.8111 41 14.903 84.4895 7.82805 77.7883C0.753065 71.087 -1.9982 27 1.53928 27Z" fill="#01A29D"/>
<path d="M85.4071 13.8182V40H80.6259L69.2353 23.5213H69.0435V40H63.508V13.8182H68.3659L79.6671 30.2841H79.8972V13.8182H85.4071ZM98.8272 40.3835C96.8074 40.3835 95.0687 39.9744 93.6113 39.1562C92.1625 38.3295 91.046 37.1619 90.2619 35.6534C89.4778 34.1364 89.0858 32.3423 89.0858 30.2713C89.0858 28.2514 89.4778 26.4787 90.2619 24.9531C91.046 23.4276 92.1497 22.2386 93.573 21.3864C95.0048 20.5341 96.6838 20.108 98.6099 20.108C99.9054 20.108 101.111 20.3168 102.228 20.7344C103.353 21.1435 104.333 21.7614 105.168 22.5881C106.012 23.4148 106.668 24.4545 107.137 25.7074C107.606 26.9517 107.84 28.4091 107.84 30.0795V31.5753H91.2591V28.2003H102.714C102.714 27.4162 102.543 26.7216 102.202 26.1165C101.861 25.5114 101.388 25.0384 100.783 24.6974C100.187 24.348 99.492 24.1733 98.6994 24.1733C97.8727 24.1733 97.1397 24.3651 96.5005 24.7486C95.8699 25.1236 95.3755 25.6307 95.0176 26.2699C94.6596 26.9006 94.4764 27.6037 94.4679 28.3793V31.5881C94.4679 32.5597 94.6468 33.3991 95.0048 34.1065C95.3713 34.8139 95.8869 35.3594 96.5517 35.7429C97.2164 36.1264 98.0048 36.3182 98.9167 36.3182C99.5218 36.3182 100.076 36.233 100.579 36.0625C101.081 35.892 101.512 35.6364 101.87 35.2955C102.228 34.9545 102.501 34.5369 102.688 34.0426L107.725 34.375C107.469 35.5852 106.945 36.642 106.153 37.5455C105.368 38.4403 104.354 39.1392 103.11 39.642C101.874 40.1364 100.447 40.3835 98.8272 40.3835ZM115.127 40L109.783 20.3636H115.293L118.336 33.5568H118.515L121.685 20.3636H127.093L130.314 33.4801H130.481L133.472 20.3636H138.969L133.638 40H127.873L124.498 27.6506H124.255L120.88 40H115.127ZM148.775 13.8182H154.975L160.945 25.0938H161.201L167.171 13.8182H173.371L163.822 30.7443V40H158.324V30.7443L148.775 13.8182ZM181.051 40.3835C179.066 40.3835 177.348 39.9616 175.899 39.1179C174.459 38.2656 173.347 37.081 172.563 35.5639C171.779 34.0384 171.387 32.2699 171.387 30.2585C171.387 28.2301 171.779 26.4574 172.563 24.9403C173.347 23.4148 174.459 22.2301 175.899 21.3864C177.348 20.5341 179.066 20.108 181.051 20.108C183.037 20.108 184.75 20.5341 186.191 21.3864C187.639 22.2301 188.756 23.4148 189.54 24.9403C190.324 26.4574 190.716 28.2301 190.716 30.2585C190.716 32.2699 190.324 34.0384 189.54 35.5639C188.756 37.081 187.639 38.2656 186.191 39.1179C184.75 39.9616 183.037 40.3835 181.051 40.3835ZM181.077 36.1648C181.98 36.1648 182.735 35.9091 183.34 35.3977C183.945 34.8778 184.401 34.1705 184.708 33.2756C185.023 32.3807 185.181 31.3622 185.181 30.2202C185.181 29.0781 185.023 28.0597 184.708 27.1648C184.401 26.2699 183.945 25.5625 183.34 25.0426C182.735 24.5227 181.98 24.2628 181.077 24.2628C180.165 24.2628 179.398 24.5227 178.776 25.0426C178.162 25.5625 177.698 26.2699 177.382 27.1648C177.075 28.0597 176.922 29.0781 176.922 30.2202C176.922 31.3622 177.075 32.3807 177.382 33.2756C177.698 34.1705 178.162 34.8778 178.776 35.3977C179.398 35.9091 180.165 36.1648 181.077 36.1648ZM194.257 40V20.3636H199.537V23.7898H199.742C200.1 22.571 200.7 21.6506 201.544 21.0284C202.388 20.3977 203.36 20.0824 204.459 20.0824C204.732 20.0824 205.026 20.0994 205.341 20.1335C205.656 20.1676 205.933 20.2145 206.172 20.2741V25.1065C205.916 25.0298 205.563 24.9616 205.111 24.902C204.659 24.8423 204.246 24.8125 203.871 24.8125C203.07 24.8125 202.354 24.9872 201.723 25.3366C201.101 25.6776 200.607 26.1548 200.24 26.7685C199.882 27.3821 199.703 28.0895 199.703 28.8906V40H194.257ZM213.922 34.3494L213.935 27.8168H214.728L221.018 20.3636H227.269L218.819 30.233H217.528L213.922 34.3494ZM208.988 40V13.8182H214.434V40H208.988ZM221.26 40L215.482 31.4474L219.113 27.5994L227.64 40H221.26Z" fill="white"/>
</svg>
