<svg width="250" height="79" viewBox="0 0 289 79" fill="none" xmlns="http://www.w3.org/2000/svg">
<path d="M0 26.5C0 11.8645 11.8645 0 26.5 0H262.5C277.136 0 289 11.8645 289 26.5V26.5C289 41.1355 277.136 53 262.5 53H26.5C11.8645 53 0 41.1355 0 26.5V26.5Z" fill="#01A29D"/>
<path d="M1.53928 27C5.07676 27 32.9837 27 32.9837 27L20.8111 41C20.8111 41 14.903 84.4895 7.82805 77.7883C0.753065 71.087 -1.9982 27 1.53928 27Z" fill="#01A29D"/>
<path d="M102.567 40V13.8182H112.896C114.882 13.8182 116.574 14.1974 117.971 14.956C119.369 15.706 120.434 16.75 121.167 18.0881C121.909 19.4176 122.28 20.9517 122.28 22.6903C122.28 24.429 121.905 25.9631 121.155 27.2926C120.405 28.6222 119.318 29.6577 117.895 30.3991C116.48 31.1406 114.767 31.5114 112.756 31.5114H106.172V27.0753H111.861C112.926 27.0753 113.804 26.892 114.494 26.5256C115.193 26.1506 115.713 25.6349 116.054 24.9787C116.403 24.3139 116.578 23.5511 116.578 22.6903C116.578 21.821 116.403 21.0625 116.054 20.4148C115.713 19.7585 115.193 19.2514 114.494 18.8935C113.795 18.527 112.909 18.3438 111.835 18.3438H108.102V40H102.567ZM130.845 40.3707C129.592 40.3707 128.476 40.1534 127.496 39.7188C126.515 39.2756 125.74 38.6236 125.169 37.7628C124.606 36.8935 124.325 35.8111 124.325 34.5156C124.325 33.4247 124.525 32.5085 124.926 31.767C125.327 31.0256 125.872 30.429 126.562 29.9773C127.253 29.5256 128.037 29.1847 128.915 28.9545C129.801 28.7244 130.73 28.5625 131.702 28.4688C132.844 28.3494 133.764 28.2386 134.463 28.1364C135.162 28.0256 135.669 27.8636 135.984 27.6506C136.3 27.4375 136.457 27.1222 136.457 26.7045V26.6278C136.457 25.8182 136.202 25.1918 135.69 24.7486C135.187 24.3054 134.471 24.0838 133.542 24.0838C132.562 24.0838 131.782 24.3011 131.203 24.7358C130.623 25.1619 130.24 25.6989 130.052 26.3466L125.015 25.9375C125.271 24.7443 125.774 23.7131 126.524 22.8438C127.274 21.9659 128.241 21.2926 129.426 20.8239C130.619 20.3466 132 20.108 133.568 20.108C134.659 20.108 135.703 20.2358 136.7 20.4915C137.706 20.7472 138.596 21.1435 139.372 21.6804C140.156 22.2173 140.774 22.9077 141.226 23.7514C141.677 24.5866 141.903 25.5881 141.903 26.7557V40H136.738V37.277H136.585C136.27 37.8906 135.848 38.4318 135.319 38.9006C134.791 39.3608 134.156 39.723 133.415 39.9872C132.673 40.2429 131.817 40.3707 130.845 40.3707ZM132.405 36.6122C133.206 36.6122 133.913 36.4545 134.527 36.1392C135.14 35.8153 135.622 35.3807 135.971 34.8352C136.321 34.2898 136.496 33.6719 136.496 32.9815V30.8977C136.325 31.0085 136.091 31.1108 135.792 31.2045C135.503 31.2898 135.175 31.3707 134.808 31.4474C134.442 31.5156 134.075 31.5795 133.709 31.6392C133.342 31.6903 133.01 31.7372 132.711 31.7798C132.072 31.8736 131.514 32.0227 131.037 32.2273C130.559 32.4318 130.189 32.7088 129.925 33.0582C129.66 33.3991 129.528 33.8253 129.528 34.3366C129.528 35.0781 129.797 35.6449 130.334 36.0369C130.879 36.4205 131.569 36.6122 132.405 36.6122ZM146.128 40V20.3636H151.408V23.7898H151.613C151.971 22.571 152.572 21.6506 153.415 21.0284C154.259 20.3977 155.231 20.0824 156.33 20.0824C156.603 20.0824 156.897 20.0994 157.212 20.1335C157.528 20.1676 157.805 20.2145 158.043 20.2741V25.1065C157.787 25.0298 157.434 24.9616 156.982 24.902C156.53 24.8423 156.117 24.8125 155.742 24.8125C154.941 24.8125 154.225 24.9872 153.594 25.3366C152.972 25.6776 152.478 26.1548 152.111 26.7685C151.753 27.3821 151.574 28.0895 151.574 28.8906V40H146.128ZM160.859 40V20.3636H166.305V40H160.859ZM163.595 17.8324C162.785 17.8324 162.09 17.5639 161.511 17.027C160.94 16.4815 160.654 15.8295 160.654 15.071C160.654 14.321 160.94 13.6776 161.511 13.1406C162.09 12.5952 162.785 12.3224 163.595 12.3224C164.404 12.3224 165.095 12.5952 165.666 13.1406C166.245 13.6776 166.535 14.321 166.535 15.071C166.535 15.8295 166.245 16.4815 165.666 17.027C165.095 17.5639 164.404 17.8324 163.595 17.8324ZM187.006 25.9631L182.02 26.2699C181.934 25.8437 181.751 25.4602 181.47 25.1193C181.189 24.7699 180.818 24.4929 180.358 24.2884C179.906 24.0753 179.365 23.9688 178.734 23.9688C177.89 23.9688 177.179 24.1477 176.599 24.5057C176.02 24.8551 175.73 25.3239 175.73 25.9119C175.73 26.3807 175.917 26.777 176.292 27.1009C176.667 27.4247 177.311 27.6847 178.223 27.8807L181.777 28.5966C183.686 28.9886 185.109 29.6193 186.047 30.4886C186.984 31.358 187.453 32.5 187.453 33.9148C187.453 35.2017 187.074 36.331 186.315 37.3026C185.565 38.2741 184.534 39.0327 183.221 39.5781C181.917 40.1151 180.413 40.3835 178.709 40.3835C176.109 40.3835 174.038 39.8423 172.496 38.7599C170.961 37.669 170.062 36.1861 169.798 34.3111L175.155 34.0298C175.317 34.8224 175.709 35.4276 176.331 35.8452C176.953 36.2543 177.75 36.4588 178.721 36.4588C179.676 36.4588 180.443 36.2756 181.023 35.9091C181.611 35.5341 181.909 35.0526 181.917 34.4645C181.909 33.9702 181.7 33.5653 181.291 33.25C180.882 32.9261 180.251 32.679 179.399 32.5085L175.998 31.831C174.081 31.4474 172.653 30.7827 171.716 29.8366C170.787 28.8906 170.322 27.6847 170.322 26.2188C170.322 24.9574 170.663 23.8707 171.345 22.9588C172.035 22.0469 173.003 21.3438 174.247 20.8494C175.5 20.3551 176.966 20.108 178.645 20.108C181.125 20.108 183.077 20.6321 184.5 21.6804C185.932 22.7287 186.767 24.1562 187.006 25.9631Z" fill="white"/>
</svg>
