<svg width="256" height="256" viewBox="0 0 256 256" fill="none" xmlns="http://www.w3.org/2000/svg">
<g clip-path="url(#clip0_6_78)">
<path d="M221.011 119.464L244.014 138.14C247.366 140.744 248.691 144.238 248.079 148.512C247.268 152.804 244.817 155.64 240.825 157.01L212.722 167.02L223.402 194.761C224.981 198.833 224.414 202.5 221.492 205.681C218.797 209.142 215.295 210.367 211.102 209.547L181.882 204.094L177.154 233.55C176.533 237.724 174.19 240.65 170.117 242.229C168.941 242.538 167.954 242.729 167.257 242.793C164.07 243.085 161.381 242.227 159.179 240.12L136.528 220.909L117.853 243.913C115.248 247.265 111.755 248.589 107.481 247.977C103.198 247.266 100.362 244.815 98.9822 240.724L88.972 212.621L61.2319 223.301C57.1592 224.88 53.492 224.313 50.3117 221.391C46.8509 218.696 45.6348 215.293 46.4459 211.001L51.8982 181.78L22.452 177.152C18.2778 176.531 15.3515 174.189 13.7726 170.116C12.3838 165.925 13.0506 162.249 15.8818 159.177L34.9925 136.536L11.9894 117.86C8.63738 115.255 7.31256 111.762 7.92453 107.488C8.73566 103.196 11.1867 100.36 15.1782 98.9896L43.281 88.9794L32.601 61.2393C31.0222 57.1666 31.689 53.4903 34.5019 50.2195C37.1969 46.7587 40.6 45.5426 44.8921 46.3537L74.1126 51.8061L78.8405 22.3507C79.4524 18.0769 81.8039 15.2501 85.895 13.8705C89.9677 12.2917 93.6349 12.8589 96.8152 15.7805L119.484 35.19L138.151 12.0873C140.855 8.72609 144.258 7.50999 148.541 8.22154C152.815 8.83351 155.641 11.185 157.021 15.276L167.031 43.3788L194.771 32.6989C198.844 31.1201 202.511 31.6873 205.692 34.6089C209.152 37.3039 210.378 40.8065 209.557 44.9991L204.105 74.2196L233.56 78.9475C237.735 79.5686 240.661 81.9109 242.24 85.9837C243.629 90.1743 242.962 93.8506 240.131 96.9222L221.011 119.464Z" fill="#01A29D"/>
<path d="M207.23 119.228L206.287 120.376L207.425 121.33L227.438 138.106L227.45 138.117L227.462 138.127C229.93 140.106 230.918 142.69 230.474 146.017C229.865 149.338 228.098 151.401 225.184 152.426L225.175 152.429L225.167 152.432L200.8 161.322L199.378 161.841L199.91 163.259L209.25 188.118L209.251 188.121C209.868 189.751 210.038 191.216 209.824 192.539C209.611 193.856 209.001 195.13 207.903 196.363L207.863 196.409L207.826 196.458C206.802 197.816 205.68 198.663 204.484 199.112C203.287 199.561 201.911 199.652 200.316 199.325L200.303 199.323L174.927 194.369L173.393 194.069L173.157 195.614L169.128 221.97L169.126 221.978L169.125 221.986C168.675 225.166 167.026 227.314 164.051 228.522C163.11 228.771 162.377 228.909 161.907 228.952C159.548 229.168 157.658 228.523 156.08 226.965L156.048 226.934L156.014 226.904L136.306 209.65L135.116 208.609L134.139 209.852L117.987 230.397L117.977 230.409L117.967 230.422C116.983 231.73 115.875 232.585 114.662 233.069C113.45 233.551 112.046 233.699 110.414 233.456C108.798 233.171 107.523 232.565 106.528 231.687C105.528 230.803 104.74 229.578 104.204 227.952L104.2 227.941L104.196 227.929L95.437 202.747L94.9235 201.271L93.4696 201.844L69.4195 211.335L69.4162 211.336C67.8556 211.956 66.4616 212.118 65.2052 211.895C63.9537 211.672 62.7241 211.046 61.519 209.904L61.4747 209.862L61.4272 209.824C60.1001 208.757 59.2665 207.606 58.8189 206.362C58.3699 205.113 58.2718 203.666 58.5818 201.949L58.5824 201.945L63.2411 175.802L63.5076 174.306L62.0084 174.058L36.4389 169.841L36.4265 169.839C33.3759 169.362 31.2626 167.656 30.0597 164.504C29.0021 161.208 29.5211 158.502 31.5656 156.213L31.5875 156.189L31.6082 156.163L48.1383 135.944L49.0761 134.797L47.9407 133.845L27.9281 117.069L27.9158 117.058L27.9032 117.048C25.4361 115.069 24.4481 112.484 24.8921 109.158C25.5005 105.837 27.2682 103.774 30.1821 102.749L30.1904 102.746L30.1987 102.743L54.5653 93.8531L55.9879 93.3341L55.4553 91.9164L46.1158 67.0574L46.1146 67.0543C44.9243 63.9074 45.4011 61.1882 47.4862 58.6852L47.5095 58.6572L47.5315 58.6281C48.5608 57.2628 49.664 56.4211 50.8438 55.9758C52.0249 55.5299 53.402 55.4363 55.0512 55.7623L55.0547 55.763L80.4305 60.7174L81.9645 61.0169L82.2007 59.4719L86.23 33.1162L86.2318 33.104L86.2335 33.0917C86.4639 31.3983 87.0155 30.0811 87.831 29.069C88.6446 28.0591 89.7883 27.269 91.3383 26.7339L91.3708 26.7227L91.4027 26.71C92.9634 26.0899 94.3574 25.928 95.6137 26.1515C96.8652 26.3743 98.0948 26.9997 99.3 28.142L99.3189 28.1599L99.3385 28.1772L119.063 45.6092L120.256 46.6638L121.237 45.4095L137.381 24.7757L137.383 24.7732C138.414 23.4498 139.523 22.6194 140.716 22.1689C141.912 21.7176 143.3 21.6072 144.951 21.8948L144.968 21.8978L144.985 21.9004C146.606 22.1444 147.875 22.7131 148.859 23.558C149.845 24.4048 150.627 25.5996 151.162 27.2228L151.165 27.2346L151.17 27.2462L159.929 52.4282L160.442 53.9044L161.896 53.3307L185.946 43.8403L185.949 43.839C187.51 43.2188 188.904 43.0569 190.161 43.2805C191.412 43.5032 192.642 44.1286 193.847 45.2709L193.891 45.3129L193.939 45.3511C195.259 46.4131 196.098 47.5834 196.549 48.8442C197.001 50.1081 197.096 51.5553 196.786 53.2173L196.783 53.2298L192.125 79.3735L191.859 80.8644L193.352 81.1159L218.93 85.4223L218.939 85.4237L218.947 85.4251C221.998 85.9019 224.111 87.6079 225.314 90.7602C226.372 94.056 225.853 96.7618 223.808 99.0509L223.788 99.074L223.768 99.0979L207.23 119.228Z" fill="#01A29D" stroke="white" stroke-width="3"/>
<path d="M71.7819 132.322L70.0894 126.005L79.241 96.8118L84.6867 95.3526L87.0293 104.095L83.8063 104.959L78.0561 123.434L78.1356 123.73L100.641 117.7L102.363 124.127L71.7819 132.322ZM91.7764 134.111L89.4735 125.516L88.8723 122.68L81.7601 96.1368L89.2803 94.1217L99.4448 132.056L91.7764 134.111ZM123.487 126.17C120.87 126.871 118.407 127.015 116.099 126.601C113.803 126.184 111.83 125.29 110.179 123.919C108.528 122.548 107.384 120.777 106.749 118.604L114.529 116.52C115.009 117.966 115.946 118.992 117.339 119.598C118.732 120.204 120.219 120.296 121.8 119.872C123.059 119.535 124.096 118.959 124.911 118.145C125.734 117.316 126.283 116.328 126.559 115.182C126.843 114.021 126.81 112.786 126.459 111.477C126.102 110.143 125.503 109.046 124.664 108.186C123.837 107.322 122.854 106.739 121.713 106.435C120.573 106.132 119.366 106.145 118.091 106.473C116.979 106.771 115.96 107.289 115.033 108.027C114.118 108.762 113.476 109.602 113.107 110.548L105.634 111.181L102.07 90.6947L125.261 84.4808L127.018 91.0379L110.44 95.4799L112.004 105.245L112.226 105.186C112.642 104.068 113.44 103.021 114.62 102.043C115.801 101.065 117.225 100.352 118.892 99.9055C121.176 99.2934 123.358 99.2846 125.436 99.8792C127.514 100.474 129.324 101.57 130.864 103.17C132.401 104.756 133.489 106.768 134.128 109.203C134.826 111.756 134.842 114.187 134.177 116.496C133.521 118.79 132.277 120.791 130.445 122.499C128.622 124.192 126.303 125.416 123.487 126.17ZM161.97 107.679L161.434 105.679C161.027 104.16 160.974 102.679 161.276 101.235C161.586 99.775 162.256 98.4969 163.286 97.4004C164.325 96.2883 165.739 95.4923 167.53 95.0126C169.345 94.5262 170.973 94.5003 172.413 94.9351C173.865 95.3665 175.078 96.1399 176.052 97.2554C177.035 98.3553 177.731 99.6708 178.142 101.202L178.678 103.202C179.085 104.721 179.139 106.209 178.841 107.665C178.54 109.109 177.868 110.381 176.826 111.481C175.787 112.593 174.373 113.389 172.582 113.869C170.767 114.355 169.138 114.375 167.694 113.928C166.254 113.493 165.043 112.726 164.06 111.626C163.074 110.514 162.377 109.198 161.97 107.679ZM166.824 104.235L167.36 106.235C167.595 107.112 168.027 107.883 168.655 108.548C169.296 109.21 170.178 109.391 171.302 109.09C172.425 108.789 173.089 108.201 173.291 107.326C173.506 106.448 173.492 105.558 173.251 104.657L172.715 102.656C172.473 101.755 172.051 100.968 171.447 100.296C170.843 99.6239 169.961 99.4434 168.8 99.7544C167.689 100.052 167.021 100.648 166.798 101.542C166.574 102.435 166.583 103.333 166.824 104.235ZM136.686 91.1869L136.15 89.1864C135.74 87.6552 135.691 86.166 136.005 84.7187C136.316 83.2591 136.986 81.9811 138.015 80.8846C139.057 79.7848 140.461 78.9983 142.227 78.5252C144.055 78.0355 145.688 78.008 147.128 78.4427C148.568 78.8774 149.782 79.6509 150.768 80.7631C151.751 81.8629 152.447 83.1784 152.858 84.7097L153.394 86.7101C153.804 88.2413 153.852 89.7306 153.539 91.1778C153.237 92.6218 152.566 93.8936 151.523 94.9934C150.49 96.0776 149.073 96.8612 147.27 97.3442C145.467 97.8273 143.839 97.8532 142.387 97.4217C140.944 96.9747 139.732 96.2074 138.752 95.1199C137.782 94.0167 137.093 92.7057 136.686 91.1869ZM141.577 87.7322L142.113 89.7327C142.355 90.6341 142.788 91.4114 143.413 92.0645C144.05 92.7143 144.912 92.8936 145.999 92.6024C147.135 92.298 147.804 91.7084 148.007 90.8336C148.221 89.9555 148.208 89.0657 147.966 88.1643L147.43 86.1639C147.189 85.2624 146.766 84.4757 146.163 83.8036C145.559 83.1315 144.671 82.9526 143.498 83.267C142.399 83.5615 141.745 84.1601 141.537 85.0629C141.329 85.9657 141.342 86.8555 141.577 87.7322ZM146.854 119.353L162.769 74.4304L167.622 73.1301L151.707 118.053L146.854 119.353Z" fill="white"/>
<path d="M123.047 168.636C124.155 172.773 124.314 176.503 123.524 179.825C122.745 183.144 121.215 185.929 118.934 188.182C116.661 190.419 113.851 191.985 110.505 192.882C107.134 193.785 103.903 193.83 100.813 193.017C97.7234 192.204 95.0117 190.555 92.6783 188.07C90.3448 185.585 88.6255 182.28 87.5204 178.156C86.4119 174.019 86.2469 170.291 87.0252 166.972C87.8036 163.654 89.3291 160.876 91.6017 158.639C93.8711 156.39 96.6913 154.813 100.062 153.91C103.409 153.014 106.627 152.972 109.717 153.785C112.816 154.583 115.532 156.224 117.866 158.709C120.211 161.19 121.939 164.5 123.047 168.636ZM114.915 170.815C114.197 168.136 113.191 165.983 111.895 164.359C110.612 162.73 109.12 161.634 107.421 161.071C105.721 160.507 103.902 160.485 101.963 161.004C100.025 161.524 98.4603 162.453 97.2703 163.791C96.0803 165.128 95.3304 166.825 95.0208 168.88C94.7235 170.932 94.9339 173.297 95.6519 175.977C96.3699 178.657 97.3705 180.81 98.6538 182.439C99.9495 184.063 101.447 185.158 103.147 185.721C104.846 186.285 106.665 186.307 108.604 185.788C110.543 185.268 112.107 184.34 113.297 183.002C114.487 181.664 115.231 179.969 115.528 177.917C115.838 175.862 115.633 173.495 114.915 170.815ZM134.07 186.012L123.906 148.077L149.023 141.347L150.795 147.96L133.698 152.541L136.12 161.58L151.549 157.446L153.321 164.058L137.892 168.193L142.091 183.863L134.07 186.012ZM164.582 177.836L154.417 139.902L179.534 133.172L181.306 139.784L164.21 144.365L166.632 153.404L182.061 149.27L183.833 155.883L168.403 160.017L172.602 175.687L164.582 177.836Z" fill="white"/>
</g>
<defs>
<clipPath id="clip0_6_78">
<rect width="256" height="256" fill="white"/>
</clipPath>
</defs>
</svg>
