<svg width="836" height="290" viewBox="0 0 836 290" fill="none" xmlns="http://www.w3.org/2000/svg">
<path d="M0 -14.5C15.1004 -14.5 84.3234 6.4469 109.362 33.5C132.5 58.5 170.104 102.5 200.192 86.8C230.449 70.5 260.934 60.5 291.021 70.8C321.279 81.5 356.413 98.5 386.5 114.5C416.758 130.5 442.594 145.5 472.681 166.8C502.939 188.5 530.913 191 561 170C591.258 149 624.253 122.5 654.341 101.5C683 84 716.413 101.2 746.5 149.5C850 303 989.74 92.7 1004.5 119L858 275.5L868.5 289.5L836 -14.5H820.843C805.742 -14.5 775.258 -14.5 745.17 -14.5C714.913 -14.5 684.428 -14.5 654.341 -14.5C624.083 -14.5 593.598 -14.5 563.511 -14.5C533.253 -14.5 502.768 -14.5 472.681 -14.5C442.423 -14.5 411.938 -14.5 381.851 -14.5C351.594 -14.5 321.109 -14.5 291.021 -14.5C260.764 -14.5 230.279 -14.5 200.192 -14.5C169.934 -14.5 139.449 -14.5 109.362 -14.5C79.1042 -14.5 14.7598 -14.5 0 -14.5Z" fill="#01A29D"/>
</svg>
