<svg width="857" height="207" viewBox="0 0 857 207" fill="none" xmlns="http://www.w3.org/2000/svg">
<path d="M842 224L856.5 218L855.5 212L796 167.5C747 138 726.778 119 680 119C633.222 119 608.111 128 561.333 133.3C514.556 139 467.778 85 421 80C374.222 75 327.444 117 280.667 112C233.889 107 187.111 53 140.333 26.7C93.5555 -3.8147e-06 46.7778 0 23.3889 0H0V224H23.3889C46.7778 224 93.5555 224 140.333 224C187.111 224 233.889 224 280.667 224C327.444 224 374.222 224 421 224C467.778 224 514.556 224 561.333 224C608.111 224 654.889 224 701.667 224C748.444 224 795.222 224 818.611 224H842Z" fill="#01A29D"/>
</svg>
