<svg xmlns="http://www.w3.org/2000/svg" xmlns:xlink="http://www.w3.org/1999/xlink" xmlns:serif="http://www.serif.com/" viewBox="0 0 100 126.25" version="1.1" xml:space="preserve" style="" x="0px" y="0px" fill-rule="evenodd" clip-rule="evenodd" stroke-linejoin="round" stroke-miterlimit="2">
    <path d="M27.217,21.776c3.441,-1.12 6.609,-2.949 9.298,-5.369c1.054,-0.945 2.339,-1.664 3.799,-2.055c1.46,-0.391 2.932,-0.412 4.317,-0.119c3.54,0.751 7.198,0.751 10.737,-0.001c1.386,-0.292 2.858,-0.271 4.318,0.12c1.46,0.391 2.745,1.11 3.798,2.055c2.69,2.42 5.858,4.249 9.299,5.368c1.346,0.44 2.611,1.194 3.679,2.263c1.069,1.068 1.823,2.333 2.262,3.679c1.12,3.441 2.949,6.609 5.369,9.298c0.945,1.054 1.664,2.339 2.055,3.799c0.391,1.46 0.412,2.932 0.119,4.317c-0.751,3.54 -0.751,7.198 0.001,10.737c0.292,1.386 0.271,2.858 -0.12,4.318c-0.391,1.46 -1.11,2.745 -2.055,3.798c-2.42,2.69 -4.249,5.858 -5.368,9.299c-0.44,1.346 -1.194,2.611 -2.263,3.679c-1.068,1.069 -2.333,1.823 -3.679,2.262c-3.441,1.12 -6.609,2.949 -9.298,5.369c-1.054,0.945 -2.339,1.664 -3.799,2.055c-1.46,0.391 -2.932,0.412 -4.317,0.119c-3.54,-0.751 -7.198,-0.751 -10.737,0.001c-1.386,0.292 -2.858,0.271 -4.318,-0.12c-1.46,-0.391 -2.745,-1.11 -3.798,-2.055c-2.69,-2.42 -5.858,-4.249 -9.299,-5.368c-1.346,-0.44 -2.611,-1.194 -3.679,-2.263c-1.069,-1.068 -1.823,-2.333 -2.262,-3.679c-1.12,-3.441 -2.949,-6.609 -5.369,-9.298c-0.945,-1.054 -1.664,-2.339 -2.055,-3.799c-0.391,-1.46 -0.412,-2.932 -0.119,-4.317c0.751,-3.54 0.751,-7.198 -0.001,-10.737c-0.292,-1.386 -0.271,-2.858 0.12,-4.318c0.391,-1.46 1.11,-2.745 2.055,-3.798c2.42,-2.69 4.249,-5.858 5.368,-9.299c0.44,-1.346 1.194,-2.611 2.263,-3.679c1.068,-1.069 2.333,-1.823 3.679,-2.262Z"/>
    <image width="100" height="100" xlink:href="../images/jakarta-shop.webp" clip-path="url(#circleClip)"/>
    <defs>
    <clipPath id="circleClip">
        <path d="M27.217,21.776c3.441,-1.12 6.609,-2.949 9.298,-5.369c1.054,-0.945 2.339,-1.664 3.799,-2.055c1.46,-0.391 2.932,-0.412 4.317,-0.119c3.54,0.751 7.198,0.751 10.737,-0.001c1.386,-0.292 2.858,-0.271 4.318,0.12c1.46,0.391 2.745,1.11 3.798,2.055c2.69,2.42 5.858,4.249 9.299,5.368c1.346,0.44 2.611,1.194 3.679,2.263c1.069,1.068 1.823,2.333 2.262,3.679c1.12,3.441 2.949,6.609 5.369,9.298c0.945,1.054 1.664,2.339 2.055,3.799c0.391,1.46 0.412,2.932 0.119,4.317c-0.751,3.54 -0.751,7.198 0.001,10.737c0.292,1.386 0.271,2.858 -0.12,4.318c-0.391,1.46 -1.11,2.745 -2.055,3.798c-2.42,2.69 -4.249,5.858 -5.368,9.299c-0.44,1.346 -1.194,2.611 -2.263,3.679c-1.068,1.069 -2.333,1.823 -3.679,2.262c-3.441,1.12 -6.609,2.949 -9.298,5.369c-1.054,0.945 -2.339,1.664 -3.799,2.055c-1.46,0.391 -2.932,0.412 -4.317,0.119c-3.54,-0.751 -7.198,-0.751 -10.737,0.001c-1.386,0.292 -2.858,0.271 -4.318,-0.12c-1.46,-0.391 -2.745,-1.11 -3.798,-2.055c-2.69,-2.42 -5.858,-4.249 -9.299,-5.368c-1.346,-0.44 -2.611,-1.194 -3.679,-2.263c-1.069,-1.068 -1.823,-2.333 -2.262,-3.679c-1.12,-3.441 -2.949,-6.609 -5.369,-9.298c-0.945,-1.054 -1.664,-2.339 -2.055,-3.799c-0.391,-1.46 -0.412,-2.932 -0.119,-4.317c0.751,-3.54 0.751,-7.198 -0.001,-10.737c-0.292,-1.386 -0.271,-2.858 0.12,-4.318c0.391,-1.46 1.11,-2.745 2.055,-3.798c2.42,-2.69 4.249,-5.858 5.368,-9.299c0.44,-1.346 1.194,-2.611 2.263,-3.679c1.068,-1.069 2.333,-1.823 3.679,-2.262Z"/>
      </clipPath>
    </defs>
</svg>
